<?xml version="1.0" encoding="utf-8" standalone="no"?>
<!DOCTYPE svg PUBLIC "-//W3C//DTD SVG 1.1//EN"
  "http://www.w3.org/Graphics/SVG/1.1/DTD/svg11.dtd">
<svg xmlns:xlink="http://www.w3.org/1999/xlink" width="367.483176pt" height="188.399486pt" viewBox="0 0 367.483176 188.399486" xmlns="http://www.w3.org/2000/svg" version="1.1">
 <metadata>
  <rdf:RDF xmlns:dc="http://purl.org/dc/elements/1.1/" xmlns:cc="http://creativecommons.org/ns#" xmlns:rdf="http://www.w3.org/1999/02/22-rdf-syntax-ns#">
   <cc:Work>
    <dc:type rdf:resource="http://purl.org/dc/dcmitype/StillImage"/>
    <dc:date>2025-11-14T21:42:10.175909</dc:date>
    <dc:format>image/svg+xml</dc:format>
    <dc:creator>
     <cc:Agent>
      <dc:title>Matplotlib v3.10.6, https://matplotlib.org/</dc:title>
     </cc:Agent>
    </dc:creator>
   </cc:Work>
  </rdf:RDF>
 </metadata>
 <defs>
  <style type="text/css">*{stroke-linejoin: round; stroke-linecap: butt}</style>
 </defs>
 <g id="figure_1">
  <g id="patch_1">
   <path d="M 0 188.399486 
L 367.483176 188.399486 
L 367.483176 -0 
L 0 -0 
z
" style="fill: #ffffff"/>
  </g>
  <g id="axes_1">
   <g id="patch_2">
    <path d="M 37.41025 155.488736 
L 179.155174 155.488736 
L 179.155174 13.743812 
L 37.41025 13.743812 
z
" style="fill: #ffffff"/>
   </g>
   <g id="matplotlib.axis_1">
    <g id="xtick_1">
     <g id="line2d_1">
      <path d="M 43.853201 155.488736 
L 43.853201 13.743812 
" clip-path="url(#pc600320428)" style="fill: none; stroke: #dddddd; stroke-width: 0.5; stroke-linecap: square"/>
     </g>
     <g id="line2d_2">
      <defs>
       <path id="mb52a80e226" d="M 0 0 
L 0 3.5 
" style="stroke: #000000; stroke-width: 0.6"/>
      </defs>
      <g>
       <use xlink:href="#mb52a80e226" x="43.853201" y="155.488736" style="stroke: #000000; stroke-width: 0.6"/>
      </g>
     </g>
     <g id="text_1">
      <!-- 0.0 -->
      <g transform="translate(38.128076 167.959611) scale(0.072 -0.072)">
       <defs>
        <path id="DejaVuSans-30" d="M 2034 4250 
Q 1547 4250 1301 3770 
Q 1056 3291 1056 2328 
Q 1056 1369 1301 889 
Q 1547 409 2034 409 
Q 2525 409 2770 889 
Q 3016 1369 3016 2328 
Q 3016 3291 2770 3770 
Q 2525 4250 2034 4250 
z
M 2034 4750 
Q 2819 4750 3233 4129 
Q 3647 3509 3647 2328 
Q 3647 1150 3233 529 
Q 2819 -91 2034 -91 
Q 1250 -91 836 529 
Q 422 1150 422 2328 
Q 422 3509 836 4129 
Q 1250 4750 2034 4750 
z
" transform="scale(0.015625)"/>
        <path id="DejaVuSans-2e" d="M 684 794 
L 1344 794 
L 1344 0 
L 684 0 
L 684 794 
z
" transform="scale(0.015625)"/>
       </defs>
       <use xlink:href="#DejaVuSans-30"/>
       <use xlink:href="#DejaVuSans-2e" transform="translate(63.623047 0)"/>
       <use xlink:href="#DejaVuSans-30" transform="translate(95.410156 0)"/>
      </g>
     </g>
    </g>
    <g id="xtick_2">
     <g id="line2d_3">
      <path d="M 69.625005 155.488736 
L 69.625005 13.743812 
" clip-path="url(#pc600320428)" style="fill: none; stroke: #dddddd; stroke-width: 0.5; stroke-linecap: square"/>
     </g>
     <g id="line2d_4">
      <g>
       <use xlink:href="#mb52a80e226" x="69.625005" y="155.488736" style="stroke: #000000; stroke-width: 0.6"/>
      </g>
     </g>
     <g id="text_2">
      <!-- 0.2 -->
      <g transform="translate(63.89988 167.959611) scale(0.072 -0.072)">
       <defs>
        <path id="DejaVuSans-32" d="M 1228 531 
L 3431 531 
L 3431 0 
L 469 0 
L 469 531 
Q 828 903 1448 1529 
Q 2069 2156 2228 2338 
Q 2531 2678 2651 2914 
Q 2772 3150 2772 3378 
Q 2772 3750 2511 3984 
Q 2250 4219 1831 4219 
Q 1534 4219 1204 4116 
Q 875 4013 500 3803 
L 500 4441 
Q 881 4594 1212 4672 
Q 1544 4750 1819 4750 
Q 2544 4750 2975 4387 
Q 3406 4025 3406 3419 
Q 3406 3131 3298 2873 
Q 3191 2616 2906 2266 
Q 2828 2175 2409 1742 
Q 1991 1309 1228 531 
z
" transform="scale(0.015625)"/>
       </defs>
       <use xlink:href="#DejaVuSans-30"/>
       <use xlink:href="#DejaVuSans-2e" transform="translate(63.623047 0)"/>
       <use xlink:href="#DejaVuSans-32" transform="translate(95.410156 0)"/>
      </g>
     </g>
    </g>
    <g id="xtick_3">
     <g id="line2d_5">
      <path d="M 95.39681 155.488736 
L 95.39681 13.743812 
" clip-path="url(#pc600320428)" style="fill: none; stroke: #dddddd; stroke-width: 0.5; stroke-linecap: square"/>
     </g>
     <g id="line2d_6">
      <g>
       <use xlink:href="#mb52a80e226" x="95.39681" y="155.488736" style="stroke: #000000; stroke-width: 0.6"/>
      </g>
     </g>
     <g id="text_3">
      <!-- 0.4 -->
      <g transform="translate(89.671685 167.959611) scale(0.072 -0.072)">
       <defs>
        <path id="DejaVuSans-34" d="M 2419 4116 
L 825 1625 
L 2419 1625 
L 2419 4116 
z
M 2253 4666 
L 3047 4666 
L 3047 1625 
L 3713 1625 
L 3713 1100 
L 3047 1100 
L 3047 0 
L 2419 0 
L 2419 1100 
L 313 1100 
L 313 1709 
L 2253 4666 
z
" transform="scale(0.015625)"/>
       </defs>
       <use xlink:href="#DejaVuSans-30"/>
       <use xlink:href="#DejaVuSans-2e" transform="translate(63.623047 0)"/>
       <use xlink:href="#DejaVuSans-34" transform="translate(95.410156 0)"/>
      </g>
     </g>
    </g>
    <g id="xtick_4">
     <g id="line2d_7">
      <path d="M 121.168614 155.488736 
L 121.168614 13.743812 
" clip-path="url(#pc600320428)" style="fill: none; stroke: #dddddd; stroke-width: 0.5; stroke-linecap: square"/>
     </g>
     <g id="line2d_8">
      <g>
       <use xlink:href="#mb52a80e226" x="121.168614" y="155.488736" style="stroke: #000000; stroke-width: 0.6"/>
      </g>
     </g>
     <g id="text_4">
      <!-- 0.6 -->
      <g transform="translate(115.443489 167.959611) scale(0.072 -0.072)">
       <defs>
        <path id="DejaVuSans-36" d="M 2113 2584 
Q 1688 2584 1439 2293 
Q 1191 2003 1191 1497 
Q 1191 994 1439 701 
Q 1688 409 2113 409 
Q 2538 409 2786 701 
Q 3034 994 3034 1497 
Q 3034 2003 2786 2293 
Q 2538 2584 2113 2584 
z
M 3366 4563 
L 3366 3988 
Q 3128 4100 2886 4159 
Q 2644 4219 2406 4219 
Q 1781 4219 1451 3797 
Q 1122 3375 1075 2522 
Q 1259 2794 1537 2939 
Q 1816 3084 2150 3084 
Q 2853 3084 3261 2657 
Q 3669 2231 3669 1497 
Q 3669 778 3244 343 
Q 2819 -91 2113 -91 
Q 1303 -91 875 529 
Q 447 1150 447 2328 
Q 447 3434 972 4092 
Q 1497 4750 2381 4750 
Q 2619 4750 2861 4703 
Q 3103 4656 3366 4563 
z
" transform="scale(0.015625)"/>
       </defs>
       <use xlink:href="#DejaVuSans-30"/>
       <use xlink:href="#DejaVuSans-2e" transform="translate(63.623047 0)"/>
       <use xlink:href="#DejaVuSans-36" transform="translate(95.410156 0)"/>
      </g>
     </g>
    </g>
    <g id="xtick_5">
     <g id="line2d_9">
      <path d="M 146.940418 155.488736 
L 146.940418 13.743812 
" clip-path="url(#pc600320428)" style="fill: none; stroke: #dddddd; stroke-width: 0.5; stroke-linecap: square"/>
     </g>
     <g id="line2d_10">
      <g>
       <use xlink:href="#mb52a80e226" x="146.940418" y="155.488736" style="stroke: #000000; stroke-width: 0.6"/>
      </g>
     </g>
     <g id="text_5">
      <!-- 0.8 -->
      <g transform="translate(141.215293 167.959611) scale(0.072 -0.072)">
       <defs>
        <path id="DejaVuSans-38" d="M 2034 2216 
Q 1584 2216 1326 1975 
Q 1069 1734 1069 1313 
Q 1069 891 1326 650 
Q 1584 409 2034 409 
Q 2484 409 2743 651 
Q 3003 894 3003 1313 
Q 3003 1734 2745 1975 
Q 2488 2216 2034 2216 
z
M 1403 2484 
Q 997 2584 770 2862 
Q 544 3141 544 3541 
Q 544 4100 942 4425 
Q 1341 4750 2034 4750 
Q 2731 4750 3128 4425 
Q 3525 4100 3525 3541 
Q 3525 3141 3298 2862 
Q 3072 2584 2669 2484 
Q 3125 2378 3379 2068 
Q 3634 1759 3634 1313 
Q 3634 634 3220 271 
Q 2806 -91 2034 -91 
Q 1263 -91 848 271 
Q 434 634 434 1313 
Q 434 1759 690 2068 
Q 947 2378 1403 2484 
z
M 1172 3481 
Q 1172 3119 1398 2916 
Q 1625 2713 2034 2713 
Q 2441 2713 2670 2916 
Q 2900 3119 2900 3481 
Q 2900 3844 2670 4047 
Q 2441 4250 2034 4250 
Q 1625 4250 1398 4047 
Q 1172 3844 1172 3481 
z
" transform="scale(0.015625)"/>
       </defs>
       <use xlink:href="#DejaVuSans-30"/>
       <use xlink:href="#DejaVuSans-2e" transform="translate(63.623047 0)"/>
       <use xlink:href="#DejaVuSans-38" transform="translate(95.410156 0)"/>
      </g>
     </g>
    </g>
    <g id="xtick_6">
     <g id="line2d_11">
      <path d="M 172.712223 155.488736 
L 172.712223 13.743812 
" clip-path="url(#pc600320428)" style="fill: none; stroke: #dddddd; stroke-width: 0.5; stroke-linecap: square"/>
     </g>
     <g id="line2d_12">
      <g>
       <use xlink:href="#mb52a80e226" x="172.712223" y="155.488736" style="stroke: #000000; stroke-width: 0.6"/>
      </g>
     </g>
     <g id="text_6">
      <!-- 1.0 -->
      <g transform="translate(166.987098 167.959611) scale(0.072 -0.072)">
       <defs>
        <path id="DejaVuSans-31" d="M 794 531 
L 1825 531 
L 1825 4091 
L 703 3866 
L 703 4441 
L 1819 4666 
L 2450 4666 
L 2450 531 
L 3481 531 
L 3481 0 
L 794 0 
L 794 531 
z
" transform="scale(0.015625)"/>
       </defs>
       <use xlink:href="#DejaVuSans-31"/>
       <use xlink:href="#DejaVuSans-2e" transform="translate(63.623047 0)"/>
       <use xlink:href="#DejaVuSans-30" transform="translate(95.410156 0)"/>
      </g>
     </g>
    </g>
    <g id="text_7">
     <!-- $s$ -->
     <g transform="translate(106.162712 179.535736) scale(0.08 -0.08)">
      <defs>
       <path id="DejaVuSans-Oblique-73" d="M 3200 3397 
L 3091 2853 
Q 2863 2978 2609 3040 
Q 2356 3103 2088 3103 
Q 1634 3103 1373 2948 
Q 1113 2794 1113 2528 
Q 1113 2219 1719 2053 
Q 1766 2041 1788 2034 
L 1972 1978 
Q 2547 1819 2739 1644 
Q 2931 1469 2931 1166 
Q 2931 609 2489 259 
Q 2047 -91 1331 -91 
Q 1053 -91 747 -37 
Q 441 16 72 128 
L 184 722 
Q 500 559 806 475 
Q 1113 391 1394 391 
Q 1816 391 2080 572 
Q 2344 753 2344 1031 
Q 2344 1331 1650 1516 
L 1591 1531 
L 1394 1581 
Q 956 1697 753 1886 
Q 550 2075 550 2369 
Q 550 2928 970 3256 
Q 1391 3584 2113 3584 
Q 2397 3584 2667 3537 
Q 2938 3491 3200 3397 
z
" transform="scale(0.015625)"/>
      </defs>
      <use xlink:href="#DejaVuSans-Oblique-73"/>
     </g>
    </g>
   </g>
   <g id="matplotlib.axis_2">
    <g id="ytick_1">
     <g id="line2d_13">
      <path d="M 37.41025 149.045785 
L 179.155174 149.045785 
" clip-path="url(#pc600320428)" style="fill: none; stroke: #dddddd; stroke-width: 0.5; stroke-linecap: square"/>
     </g>
     <g id="line2d_14">
      <defs>
       <path id="me028f46721" d="M 0 0 
L -3.5 0 
" style="stroke: #000000; stroke-width: 0.6"/>
      </defs>
      <g>
       <use xlink:href="#me028f46721" x="37.41025" y="149.045785" style="stroke: #000000; stroke-width: 0.6"/>
      </g>
     </g>
     <g id="text_8">
      <!-- 0.0 -->
      <g transform="translate(18.96 151.781222) scale(0.072 -0.072)">
       <use xlink:href="#DejaVuSans-30"/>
       <use xlink:href="#DejaVuSans-2e" transform="translate(63.623047 0)"/>
       <use xlink:href="#DejaVuSans-30" transform="translate(95.410156 0)"/>
      </g>
     </g>
    </g>
    <g id="ytick_2">
     <g id="line2d_15">
      <path d="M 37.41025 123.273981 
L 179.155174 123.273981 
" clip-path="url(#pc600320428)" style="fill: none; stroke: #dddddd; stroke-width: 0.5; stroke-linecap: square"/>
     </g>
     <g id="line2d_16">
      <g>
       <use xlink:href="#me028f46721" x="37.41025" y="123.273981" style="stroke: #000000; stroke-width: 0.6"/>
      </g>
     </g>
     <g id="text_9">
      <!-- 0.2 -->
      <g transform="translate(18.96 126.009418) scale(0.072 -0.072)">
       <use xlink:href="#DejaVuSans-30"/>
       <use xlink:href="#DejaVuSans-2e" transform="translate(63.623047 0)"/>
       <use xlink:href="#DejaVuSans-32" transform="translate(95.410156 0)"/>
      </g>
     </g>
    </g>
    <g id="ytick_3">
     <g id="line2d_17">
      <path d="M 37.41025 97.502176 
L 179.155174 97.502176 
" clip-path="url(#pc600320428)" style="fill: none; stroke: #dddddd; stroke-width: 0.5; stroke-linecap: square"/>
     </g>
     <g id="line2d_18">
      <g>
       <use xlink:href="#me028f46721" x="37.41025" y="97.502176" style="stroke: #000000; stroke-width: 0.6"/>
      </g>
     </g>
     <g id="text_10">
      <!-- 0.4 -->
      <g transform="translate(18.96 100.237614) scale(0.072 -0.072)">
       <use xlink:href="#DejaVuSans-30"/>
       <use xlink:href="#DejaVuSans-2e" transform="translate(63.623047 0)"/>
       <use xlink:href="#DejaVuSans-34" transform="translate(95.410156 0)"/>
      </g>
     </g>
    </g>
    <g id="ytick_4">
     <g id="line2d_19">
      <path d="M 37.41025 71.730372 
L 179.155174 71.730372 
" clip-path="url(#pc600320428)" style="fill: none; stroke: #dddddd; stroke-width: 0.5; stroke-linecap: square"/>
     </g>
     <g id="line2d_20">
      <g>
       <use xlink:href="#me028f46721" x="37.41025" y="71.730372" style="stroke: #000000; stroke-width: 0.6"/>
      </g>
     </g>
     <g id="text_11">
      <!-- 0.6 -->
      <g transform="translate(18.96 74.465809) scale(0.072 -0.072)">
       <use xlink:href="#DejaVuSans-30"/>
       <use xlink:href="#DejaVuSans-2e" transform="translate(63.623047 0)"/>
       <use xlink:href="#DejaVuSans-36" transform="translate(95.410156 0)"/>
      </g>
     </g>
    </g>
    <g id="ytick_5">
     <g id="line2d_21">
      <path d="M 37.41025 45.958568 
L 179.155174 45.958568 
" clip-path="url(#pc600320428)" style="fill: none; stroke: #dddddd; stroke-width: 0.5; stroke-linecap: square"/>
     </g>
     <g id="line2d_22">
      <g>
       <use xlink:href="#me028f46721" x="37.41025" y="45.958568" style="stroke: #000000; stroke-width: 0.6"/>
      </g>
     </g>
     <g id="text_12">
      <!-- 0.8 -->
      <g transform="translate(18.96 48.694005) scale(0.072 -0.072)">
       <use xlink:href="#DejaVuSans-30"/>
       <use xlink:href="#DejaVuSans-2e" transform="translate(63.623047 0)"/>
       <use xlink:href="#DejaVuSans-38" transform="translate(95.410156 0)"/>
      </g>
     </g>
    </g>
    <g id="ytick_6">
     <g id="line2d_23">
      <path d="M 37.41025 20.186763 
L 179.155174 20.186763 
" clip-path="url(#pc600320428)" style="fill: none; stroke: #dddddd; stroke-width: 0.5; stroke-linecap: square"/>
     </g>
     <g id="line2d_24">
      <g>
       <use xlink:href="#me028f46721" x="37.41025" y="20.186763" style="stroke: #000000; stroke-width: 0.6"/>
      </g>
     </g>
     <g id="text_13">
      <!-- 1.0 -->
      <g transform="translate(18.96 22.922201) scale(0.072 -0.072)">
       <use xlink:href="#DejaVuSans-31"/>
       <use xlink:href="#DejaVuSans-2e" transform="translate(63.623047 0)"/>
       <use xlink:href="#DejaVuSans-30" transform="translate(95.410156 0)"/>
      </g>
     </g>
    </g>
    <g id="text_14">
     <!-- $g(s)$ -->
     <g transform="translate(13.28 92.376274) rotate(-90) scale(0.08 -0.08)">
      <defs>
       <path id="DejaVuSans-Oblique-67" d="M 3816 3500 
L 3219 434 
Q 3047 -456 2561 -893 
Q 2075 -1331 1253 -1331 
Q 950 -1331 690 -1286 
Q 431 -1241 206 -1147 
L 313 -588 
Q 525 -725 762 -790 
Q 1000 -856 1269 -856 
Q 1816 -856 2167 -557 
Q 2519 -259 2631 300 
L 2681 563 
Q 2441 288 2122 144 
Q 1803 0 1434 0 
Q 903 0 598 351 
Q 294 703 294 1319 
Q 294 1803 478 2267 
Q 663 2731 997 3091 
Q 1219 3328 1514 3456 
Q 1809 3584 2131 3584 
Q 2484 3584 2746 3420 
Q 3009 3256 3138 2956 
L 3238 3500 
L 3816 3500 
z
M 2950 2216 
Q 2950 2641 2750 2872 
Q 2550 3103 2181 3103 
Q 1953 3103 1747 3012 
Q 1541 2922 1394 2759 
Q 1156 2491 1023 2127 
Q 891 1763 891 1375 
Q 891 944 1092 712 
Q 1294 481 1672 481 
Q 2219 481 2584 976 
Q 2950 1472 2950 2216 
z
" transform="scale(0.015625)"/>
       <path id="DejaVuSans-28" d="M 1984 4856 
Q 1566 4138 1362 3434 
Q 1159 2731 1159 2009 
Q 1159 1288 1364 580 
Q 1569 -128 1984 -844 
L 1484 -844 
Q 1016 -109 783 600 
Q 550 1309 550 2009 
Q 550 2706 781 3412 
Q 1013 4119 1484 4856 
L 1984 4856 
z
" transform="scale(0.015625)"/>
       <path id="DejaVuSans-29" d="M 513 4856 
L 1013 4856 
Q 1481 4119 1714 3412 
Q 1947 2706 1947 2009 
Q 1947 1309 1714 600 
Q 1481 -109 1013 -844 
L 513 -844 
Q 928 -128 1133 580 
Q 1338 1288 1338 2009 
Q 1338 2731 1133 3434 
Q 928 4138 513 4856 
z
" transform="scale(0.015625)"/>
      </defs>
      <use xlink:href="#DejaVuSans-Oblique-67" transform="translate(0 0.125)"/>
      <use xlink:href="#DejaVuSans-28" transform="translate(63.476562 0.125)"/>
      <use xlink:href="#DejaVuSans-Oblique-73" transform="translate(102.490234 0.125)"/>
      <use xlink:href="#DejaVuSans-29" transform="translate(154.589844 0.125)"/>
     </g>
    </g>
   </g>
   <g id="line2d_25">
    <path d="M 43.853201 149.045785 
L 43.98206 132.126559 
L 172.712223 20.186763 
L 172.712223 20.186763 
" clip-path="url(#pc600320428)" style="fill: none; stroke: #1f77b4; stroke-linecap: square"/>
   </g>
   <g id="line2d_26">
    <path d="M 43.853201 149.045785 
L 44.239778 147.085066 
L 45.012932 144.718907 
L 46.172663 141.916226 
L 47.847831 138.49799 
L 49.909575 134.81006 
L 52.486756 130.666955 
L 55.579372 126.130859 
L 59.187425 121.244868 
L 63.310913 116.040841 
L 67.949838 110.543481 
L 73.233058 104.632212 
L 79.160573 98.344165 
L 85.603524 91.836142 
L 92.69077 84.994157 
L 100.422312 77.839975 
L 108.798148 70.39191 
L 117.947139 62.557195 
L 127.740424 54.465091 
L 138.306864 46.02518 
L 149.646458 37.256481 
L 161.759206 28.17558 
L 172.712223 20.186763 
L 172.712223 20.186763 
" clip-path="url(#pc600320428)" style="fill: none; stroke: #ff7f0e; stroke-linecap: square"/>
   </g>
   <g id="line2d_27">
    <path d="M 43.853201 149.045785 
L 44.497496 147.400139 
L 46.043804 144.180677 
L 48.363267 139.910883 
L 51.327024 134.932687 
L 54.935077 129.313098 
L 59.187425 123.117068 
L 63.955208 116.577592 
L 69.109569 109.888174 
L 74.650507 103.058146 
L 80.578022 96.10263 
L 86.892114 89.040749 
L 93.463924 82.029213 
L 100.164594 75.203295 
L 107.122981 68.434643 
L 114.081368 61.973357 
L 121.168614 55.695785 
L 128.25586 49.71766 
L 135.214247 44.1389 
L 142.043776 38.949258 
L 148.615586 34.235696 
L 154.800819 30.071741 
L 160.470616 26.518239 
L 165.496118 23.624782 
L 169.619606 21.497005 
L 172.325646 20.315505 
L 172.712223 20.186763 
L 172.712223 20.186763 
" clip-path="url(#pc600320428)" style="fill: none; stroke: #2ca02c; stroke-linecap: square"/>
   </g>
   <g id="line2d_28">
    <path d="M 43.853201 149.045785 
L 51.327024 137.33147 
L 58.671989 126.229882 
L 65.759235 115.91365 
L 72.717622 106.173219 
L 79.418291 97.167085 
L 85.990101 88.70034 
L 92.433052 80.762223 
L 98.618285 73.490051 
L 104.674659 66.711091 
L 110.473315 60.548484 
L 116.143112 54.844449 
L 121.555191 49.707953 
L 126.838411 44.996356 
L 131.863913 40.804448 
L 136.760556 37.005056 
L 141.39948 33.678799 
L 145.909546 30.714566 
L 150.161894 28.178897 
L 154.285383 25.977938 
L 158.151153 24.164652 
L 161.759206 22.712568 
L 165.10954 21.597562 
L 168.202157 20.800123 
L 170.908196 20.32898 
L 172.712223 20.186763 
L 172.712223 20.186763 
" clip-path="url(#pc600320428)" style="fill: none; stroke: #d62728; stroke-linecap: square"/>
   </g>
   <g id="line2d_29">
    <path d="M 43.853201 149.045785 
L 137.791428 20.186763 
L 172.712223 20.186763 
L 172.712223 20.186763 
" clip-path="url(#pc600320428)" style="fill: none; stroke: #9467bd; stroke-linecap: square"/>
   </g>
   <g id="patch_3">
    <path d="M 37.41025 155.488736 
L 37.41025 13.743812 
" style="fill: none; stroke: #000000; stroke-width: 0.6; stroke-linejoin: miter; stroke-linecap: square"/>
   </g>
   <g id="patch_4">
    <path d="M 37.41025 155.488736 
L 179.155174 155.488736 
" style="fill: none; stroke: #000000; stroke-width: 0.6; stroke-linejoin: miter; stroke-linecap: square"/>
   </g>
   <g id="legend_1">
    <g id="patch_5">
     <path d="M 142.516311 152.712736 
L 175.268774 152.712736 
Q 176.379174 152.712736 176.379174 151.602336 
L 176.379174 111.411061 
Q 176.379174 110.300661 175.268774 110.300661 
L 142.516311 110.300661 
Q 141.405911 110.300661 141.405911 111.411061 
L 141.405911 151.602336 
Q 141.405911 152.712736 142.516311 152.712736 
z
" style="fill: #ffffff"/>
    </g>
    <g id="line2d_30">
     <path d="M 143.626711 114.796914 
L 149.178711 114.796914 
L 154.730711 114.796914 
" style="fill: none; stroke: #1f77b4; stroke-linecap: square"/>
    </g>
    <g id="text_15">
     <!-- ccoc -->
     <g transform="translate(159.172311 116.740114) scale(0.05552 -0.05552)">
      <defs>
       <path id="DejaVuSans-63" d="M 3122 3366 
L 3122 2828 
Q 2878 2963 2633 3030 
Q 2388 3097 2138 3097 
Q 1578 3097 1268 2742 
Q 959 2388 959 1747 
Q 959 1106 1268 751 
Q 1578 397 2138 397 
Q 2388 397 2633 464 
Q 2878 531 3122 666 
L 3122 134 
Q 2881 22 2623 -34 
Q 2366 -91 2075 -91 
Q 1284 -91 818 406 
Q 353 903 353 1747 
Q 353 2603 823 3093 
Q 1294 3584 2113 3584 
Q 2378 3584 2631 3529 
Q 2884 3475 3122 3366 
z
" transform="scale(0.015625)"/>
       <path id="DejaVuSans-6f" d="M 1959 3097 
Q 1497 3097 1228 2736 
Q 959 2375 959 1747 
Q 959 1119 1226 758 
Q 1494 397 1959 397 
Q 2419 397 2687 759 
Q 2956 1122 2956 1747 
Q 2956 2369 2687 2733 
Q 2419 3097 1959 3097 
z
M 1959 3584 
Q 2709 3584 3137 3096 
Q 3566 2609 3566 1747 
Q 3566 888 3137 398 
Q 2709 -91 1959 -91 
Q 1206 -91 779 398 
Q 353 888 353 1747 
Q 353 2609 779 3096 
Q 1206 3584 1959 3584 
z
" transform="scale(0.015625)"/>
      </defs>
      <use xlink:href="#DejaVuSans-63"/>
      <use xlink:href="#DejaVuSans-63" transform="translate(54.980469 0)"/>
      <use xlink:href="#DejaVuSans-6f" transform="translate(109.960938 0)"/>
      <use xlink:href="#DejaVuSans-63" transform="translate(171.142578 0)"/>
     </g>
    </g>
    <g id="line2d_31">
     <path d="M 143.626711 122.946209 
L 149.178711 122.946209 
L 154.730711 122.946209 
" style="fill: none; stroke: #ff7f0e; stroke-linecap: square"/>
    </g>
    <g id="text_16">
     <!-- ph -->
     <g transform="translate(159.172311 124.889409) scale(0.05552 -0.05552)">
      <defs>
       <path id="DejaVuSans-70" d="M 1159 525 
L 1159 -1331 
L 581 -1331 
L 581 3500 
L 1159 3500 
L 1159 2969 
Q 1341 3281 1617 3432 
Q 1894 3584 2278 3584 
Q 2916 3584 3314 3078 
Q 3713 2572 3713 1747 
Q 3713 922 3314 415 
Q 2916 -91 2278 -91 
Q 1894 -91 1617 61 
Q 1341 213 1159 525 
z
M 3116 1747 
Q 3116 2381 2855 2742 
Q 2594 3103 2138 3103 
Q 1681 3103 1420 2742 
Q 1159 2381 1159 1747 
Q 1159 1113 1420 752 
Q 1681 391 2138 391 
Q 2594 391 2855 752 
Q 3116 1113 3116 1747 
z
" transform="scale(0.015625)"/>
       <path id="DejaVuSans-68" d="M 3513 2113 
L 3513 0 
L 2938 0 
L 2938 2094 
Q 2938 2591 2744 2837 
Q 2550 3084 2163 3084 
Q 1697 3084 1428 2787 
Q 1159 2491 1159 1978 
L 1159 0 
L 581 0 
L 581 4863 
L 1159 4863 
L 1159 2956 
Q 1366 3272 1645 3428 
Q 1925 3584 2291 3584 
Q 2894 3584 3203 3211 
Q 3513 2838 3513 2113 
z
" transform="scale(0.015625)"/>
      </defs>
      <use xlink:href="#DejaVuSans-70"/>
      <use xlink:href="#DejaVuSans-68" transform="translate(63.476562 0)"/>
     </g>
    </g>
    <g id="line2d_32">
     <path d="M 143.626711 131.095504 
L 149.178711 131.095504 
L 154.730711 131.095504 
" style="fill: none; stroke: #2ca02c; stroke-linecap: square"/>
    </g>
    <g id="text_17">
     <!-- wang -->
     <g transform="translate(159.172311 133.038704) scale(0.05552 -0.05552)">
      <defs>
       <path id="DejaVuSans-77" d="M 269 3500 
L 844 3500 
L 1563 769 
L 2278 3500 
L 2956 3500 
L 3675 769 
L 4391 3500 
L 4966 3500 
L 4050 0 
L 3372 0 
L 2619 2869 
L 1863 0 
L 1184 0 
L 269 3500 
z
" transform="scale(0.015625)"/>
       <path id="DejaVuSans-61" d="M 2194 1759 
Q 1497 1759 1228 1600 
Q 959 1441 959 1056 
Q 959 750 1161 570 
Q 1363 391 1709 391 
Q 2188 391 2477 730 
Q 2766 1069 2766 1631 
L 2766 1759 
L 2194 1759 
z
M 3341 1997 
L 3341 0 
L 2766 0 
L 2766 531 
Q 2569 213 2275 61 
Q 1981 -91 1556 -91 
Q 1019 -91 701 211 
Q 384 513 384 1019 
Q 384 1609 779 1909 
Q 1175 2209 1959 2209 
L 2766 2209 
L 2766 2266 
Q 2766 2663 2505 2880 
Q 2244 3097 1772 3097 
Q 1472 3097 1187 3025 
Q 903 2953 641 2809 
L 641 3341 
Q 956 3463 1253 3523 
Q 1550 3584 1831 3584 
Q 2591 3584 2966 3190 
Q 3341 2797 3341 1997 
z
" transform="scale(0.015625)"/>
       <path id="DejaVuSans-6e" d="M 3513 2113 
L 3513 0 
L 2938 0 
L 2938 2094 
Q 2938 2591 2744 2837 
Q 2550 3084 2163 3084 
Q 1697 3084 1428 2787 
Q 1159 2491 1159 1978 
L 1159 0 
L 581 0 
L 581 3500 
L 1159 3500 
L 1159 2956 
Q 1366 3272 1645 3428 
Q 1925 3584 2291 3584 
Q 2894 3584 3203 3211 
Q 3513 2838 3513 2113 
z
" transform="scale(0.015625)"/>
       <path id="DejaVuSans-67" d="M 2906 1791 
Q 2906 2416 2648 2759 
Q 2391 3103 1925 3103 
Q 1463 3103 1205 2759 
Q 947 2416 947 1791 
Q 947 1169 1205 825 
Q 1463 481 1925 481 
Q 2391 481 2648 825 
Q 2906 1169 2906 1791 
z
M 3481 434 
Q 3481 -459 3084 -895 
Q 2688 -1331 1869 -1331 
Q 1566 -1331 1297 -1286 
Q 1028 -1241 775 -1147 
L 775 -588 
Q 1028 -725 1275 -790 
Q 1522 -856 1778 -856 
Q 2344 -856 2625 -561 
Q 2906 -266 2906 331 
L 2906 616 
Q 2728 306 2450 153 
Q 2172 0 1784 0 
Q 1141 0 747 490 
Q 353 981 353 1791 
Q 353 2603 747 3093 
Q 1141 3584 1784 3584 
Q 2172 3584 2450 3431 
Q 2728 3278 2906 2969 
L 2906 3500 
L 3481 3500 
L 3481 434 
z
" transform="scale(0.015625)"/>
      </defs>
      <use xlink:href="#DejaVuSans-77"/>
      <use xlink:href="#DejaVuSans-61" transform="translate(81.787109 0)"/>
      <use xlink:href="#DejaVuSans-6e" transform="translate(143.066406 0)"/>
      <use xlink:href="#DejaVuSans-67" transform="translate(206.445312 0)"/>
     </g>
    </g>
    <g id="line2d_33">
     <path d="M 143.626711 139.244799 
L 149.178711 139.244799 
L 154.730711 139.244799 
" style="fill: none; stroke: #d62728; stroke-linecap: square"/>
    </g>
    <g id="text_18">
     <!-- dual -->
     <g transform="translate(159.172311 141.187999) scale(0.05552 -0.05552)">
      <defs>
       <path id="DejaVuSans-64" d="M 2906 2969 
L 2906 4863 
L 3481 4863 
L 3481 0 
L 2906 0 
L 2906 525 
Q 2725 213 2448 61 
Q 2172 -91 1784 -91 
Q 1150 -91 751 415 
Q 353 922 353 1747 
Q 353 2572 751 3078 
Q 1150 3584 1784 3584 
Q 2172 3584 2448 3432 
Q 2725 3281 2906 2969 
z
M 947 1747 
Q 947 1113 1208 752 
Q 1469 391 1925 391 
Q 2381 391 2643 752 
Q 2906 1113 2906 1747 
Q 2906 2381 2643 2742 
Q 2381 3103 1925 3103 
Q 1469 3103 1208 2742 
Q 947 2381 947 1747 
z
" transform="scale(0.015625)"/>
       <path id="DejaVuSans-75" d="M 544 1381 
L 544 3500 
L 1119 3500 
L 1119 1403 
Q 1119 906 1312 657 
Q 1506 409 1894 409 
Q 2359 409 2629 706 
Q 2900 1003 2900 1516 
L 2900 3500 
L 3475 3500 
L 3475 0 
L 2900 0 
L 2900 538 
Q 2691 219 2414 64 
Q 2138 -91 1772 -91 
Q 1169 -91 856 284 
Q 544 659 544 1381 
z
M 1991 3584 
L 1991 3584 
z
" transform="scale(0.015625)"/>
       <path id="DejaVuSans-6c" d="M 603 4863 
L 1178 4863 
L 1178 0 
L 603 0 
L 603 4863 
z
" transform="scale(0.015625)"/>
      </defs>
      <use xlink:href="#DejaVuSans-64"/>
      <use xlink:href="#DejaVuSans-75" transform="translate(63.476562 0)"/>
      <use xlink:href="#DejaVuSans-61" transform="translate(126.855469 0)"/>
      <use xlink:href="#DejaVuSans-6c" transform="translate(188.134766 0)"/>
     </g>
    </g>
    <g id="line2d_34">
     <path d="M 143.626711 147.394094 
L 149.178711 147.394094 
L 154.730711 147.394094 
" style="fill: none; stroke: #9467bd; stroke-linecap: square"/>
    </g>
    <g id="text_19">
     <!-- tvar -->
     <g transform="translate(159.172311 149.337294) scale(0.05552 -0.05552)">
      <defs>
       <path id="DejaVuSans-74" d="M 1172 4494 
L 1172 3500 
L 2356 3500 
L 2356 3053 
L 1172 3053 
L 1172 1153 
Q 1172 725 1289 603 
Q 1406 481 1766 481 
L 2356 481 
L 2356 0 
L 1766 0 
Q 1100 0 847 248 
Q 594 497 594 1153 
L 594 3053 
L 172 3053 
L 172 3500 
L 594 3500 
L 594 4494 
L 1172 4494 
z
" transform="scale(0.015625)"/>
       <path id="DejaVuSans-76" d="M 191 3500 
L 800 3500 
L 1894 563 
L 2988 3500 
L 3597 3500 
L 2284 0 
L 1503 0 
L 191 3500 
z
" transform="scale(0.015625)"/>
       <path id="DejaVuSans-72" d="M 2631 2963 
Q 2534 3019 2420 3045 
Q 2306 3072 2169 3072 
Q 1681 3072 1420 2755 
Q 1159 2438 1159 1844 
L 1159 0 
L 581 0 
L 581 3500 
L 1159 3500 
L 1159 2956 
Q 1341 3275 1631 3429 
Q 1922 3584 2338 3584 
Q 2397 3584 2469 3576 
Q 2541 3569 2628 3553 
L 2631 2963 
z
" transform="scale(0.015625)"/>
      </defs>
      <use xlink:href="#DejaVuSans-74"/>
      <use xlink:href="#DejaVuSans-76" transform="translate(39.208984 0)"/>
      <use xlink:href="#DejaVuSans-61" transform="translate(98.388672 0)"/>
      <use xlink:href="#DejaVuSans-72" transform="translate(159.667969 0)"/>
     </g>
    </g>
   </g>
  </g>
  <g id="axes_2">
   <g id="patch_6">
    <path d="M 216.350897 155.488736 
L 359.745808 155.488736 
L 359.745808 13.743812 
L 216.350897 13.743812 
z
" style="fill: #ffffff"/>
   </g>
   <g id="matplotlib.axis_3">
    <g id="xtick_7">
     <g id="line2d_35">
      <path d="M 221.538654 155.488736 
L 221.538654 13.743812 
" clip-path="url(#p5b47b3fe63)" style="fill: none; stroke: #dddddd; stroke-width: 0.5; stroke-linecap: square"/>
     </g>
     <g id="line2d_36">
      <g>
       <use xlink:href="#mb52a80e226" x="221.538654" y="155.488736" style="stroke: #000000; stroke-width: 0.6"/>
      </g>
     </g>
     <g id="text_20">
      <!-- 0.0 -->
      <g transform="translate(215.813529 167.959611) scale(0.072 -0.072)">
       <use xlink:href="#DejaVuSans-30"/>
       <use xlink:href="#DejaVuSans-2e" transform="translate(63.623047 0)"/>
       <use xlink:href="#DejaVuSans-30" transform="translate(95.410156 0)"/>
      </g>
     </g>
    </g>
    <g id="xtick_8">
     <g id="line2d_37">
      <path d="M 248.142533 155.488736 
L 248.142533 13.743812 
" clip-path="url(#p5b47b3fe63)" style="fill: none; stroke: #dddddd; stroke-width: 0.5; stroke-linecap: square"/>
     </g>
     <g id="line2d_38">
      <g>
       <use xlink:href="#mb52a80e226" x="248.142533" y="155.488736" style="stroke: #000000; stroke-width: 0.6"/>
      </g>
     </g>
     <g id="text_21">
      <!-- 0.2 -->
      <g transform="translate(242.417408 167.959611) scale(0.072 -0.072)">
       <use xlink:href="#DejaVuSans-30"/>
       <use xlink:href="#DejaVuSans-2e" transform="translate(63.623047 0)"/>
       <use xlink:href="#DejaVuSans-32" transform="translate(95.410156 0)"/>
      </g>
     </g>
    </g>
    <g id="xtick_9">
     <g id="line2d_39">
      <path d="M 274.746413 155.488736 
L 274.746413 13.743812 
" clip-path="url(#p5b47b3fe63)" style="fill: none; stroke: #dddddd; stroke-width: 0.5; stroke-linecap: square"/>
     </g>
     <g id="line2d_40">
      <g>
       <use xlink:href="#mb52a80e226" x="274.746413" y="155.488736" style="stroke: #000000; stroke-width: 0.6"/>
      </g>
     </g>
     <g id="text_22">
      <!-- 0.4 -->
      <g transform="translate(269.021288 167.959611) scale(0.072 -0.072)">
       <use xlink:href="#DejaVuSans-30"/>
       <use xlink:href="#DejaVuSans-2e" transform="translate(63.623047 0)"/>
       <use xlink:href="#DejaVuSans-34" transform="translate(95.410156 0)"/>
      </g>
     </g>
    </g>
    <g id="xtick_10">
     <g id="line2d_41">
      <path d="M 301.350292 155.488736 
L 301.350292 13.743812 
" clip-path="url(#p5b47b3fe63)" style="fill: none; stroke: #dddddd; stroke-width: 0.5; stroke-linecap: square"/>
     </g>
     <g id="line2d_42">
      <g>
       <use xlink:href="#mb52a80e226" x="301.350292" y="155.488736" style="stroke: #000000; stroke-width: 0.6"/>
      </g>
     </g>
     <g id="text_23">
      <!-- 0.6 -->
      <g transform="translate(295.625167 167.959611) scale(0.072 -0.072)">
       <use xlink:href="#DejaVuSans-30"/>
       <use xlink:href="#DejaVuSans-2e" transform="translate(63.623047 0)"/>
       <use xlink:href="#DejaVuSans-36" transform="translate(95.410156 0)"/>
      </g>
     </g>
    </g>
    <g id="xtick_11">
     <g id="line2d_43">
      <path d="M 327.954172 155.488736 
L 327.954172 13.743812 
" clip-path="url(#p5b47b3fe63)" style="fill: none; stroke: #dddddd; stroke-width: 0.5; stroke-linecap: square"/>
     </g>
     <g id="line2d_44">
      <g>
       <use xlink:href="#mb52a80e226" x="327.954172" y="155.488736" style="stroke: #000000; stroke-width: 0.6"/>
      </g>
     </g>
     <g id="text_24">
      <!-- 0.8 -->
      <g transform="translate(322.229047 167.959611) scale(0.072 -0.072)">
       <use xlink:href="#DejaVuSans-30"/>
       <use xlink:href="#DejaVuSans-2e" transform="translate(63.623047 0)"/>
       <use xlink:href="#DejaVuSans-38" transform="translate(95.410156 0)"/>
      </g>
     </g>
    </g>
    <g id="xtick_12">
     <g id="line2d_45">
      <path d="M 354.558051 155.488736 
L 354.558051 13.743812 
" clip-path="url(#p5b47b3fe63)" style="fill: none; stroke: #dddddd; stroke-width: 0.5; stroke-linecap: square"/>
     </g>
     <g id="line2d_46">
      <g>
       <use xlink:href="#mb52a80e226" x="354.558051" y="155.488736" style="stroke: #000000; stroke-width: 0.6"/>
      </g>
     </g>
     <g id="text_25">
      <!-- 1.0 -->
      <g transform="translate(348.832926 167.959611) scale(0.072 -0.072)">
       <use xlink:href="#DejaVuSans-31"/>
       <use xlink:href="#DejaVuSans-2e" transform="translate(63.623047 0)"/>
       <use xlink:href="#DejaVuSans-30" transform="translate(95.410156 0)"/>
      </g>
     </g>
    </g>
    <g id="text_26">
     <!-- $s$ -->
     <g transform="translate(285.928353 179.535736) scale(0.08 -0.08)">
      <use xlink:href="#DejaVuSans-Oblique-73"/>
     </g>
    </g>
   </g>
   <g id="matplotlib.axis_4">
    <g id="ytick_7">
     <g id="line2d_47">
      <path d="M 216.350897 149.045785 
L 359.745808 149.045785 
" clip-path="url(#p5b47b3fe63)" style="fill: none; stroke: #dddddd; stroke-width: 0.5; stroke-linecap: square"/>
     </g>
     <g id="line2d_48">
      <g>
       <use xlink:href="#me028f46721" x="216.350897" y="149.045785" style="stroke: #000000; stroke-width: 0.6"/>
      </g>
     </g>
     <g id="text_27">
      <!-- 0.0 -->
      <g transform="translate(197.900647 151.781222) scale(0.072 -0.072)">
       <use xlink:href="#DejaVuSans-30"/>
       <use xlink:href="#DejaVuSans-2e" transform="translate(63.623047 0)"/>
       <use xlink:href="#DejaVuSans-30" transform="translate(95.410156 0)"/>
      </g>
     </g>
    </g>
    <g id="ytick_8">
     <g id="line2d_49">
      <path d="M 216.350897 124.36087 
L 359.745808 124.36087 
" clip-path="url(#p5b47b3fe63)" style="fill: none; stroke: #dddddd; stroke-width: 0.5; stroke-linecap: square"/>
     </g>
     <g id="line2d_50">
      <g>
       <use xlink:href="#me028f46721" x="216.350897" y="124.36087" style="stroke: #000000; stroke-width: 0.6"/>
      </g>
     </g>
     <g id="text_28">
      <!-- 0.5 -->
      <g transform="translate(197.900647 127.096307) scale(0.072 -0.072)">
       <defs>
        <path id="DejaVuSans-35" d="M 691 4666 
L 3169 4666 
L 3169 4134 
L 1269 4134 
L 1269 2991 
Q 1406 3038 1543 3061 
Q 1681 3084 1819 3084 
Q 2600 3084 3056 2656 
Q 3513 2228 3513 1497 
Q 3513 744 3044 326 
Q 2575 -91 1722 -91 
Q 1428 -91 1123 -41 
Q 819 9 494 109 
L 494 744 
Q 775 591 1075 516 
Q 1375 441 1709 441 
Q 2250 441 2565 725 
Q 2881 1009 2881 1497 
Q 2881 1984 2565 2268 
Q 2250 2553 1709 2553 
Q 1456 2553 1204 2497 
Q 953 2441 691 2322 
L 691 4666 
z
" transform="scale(0.015625)"/>
       </defs>
       <use xlink:href="#DejaVuSans-30"/>
       <use xlink:href="#DejaVuSans-2e" transform="translate(63.623047 0)"/>
       <use xlink:href="#DejaVuSans-35" transform="translate(95.410156 0)"/>
      </g>
     </g>
    </g>
    <g id="ytick_9">
     <g id="line2d_51">
      <path d="M 216.350897 99.675954 
L 359.745808 99.675954 
" clip-path="url(#p5b47b3fe63)" style="fill: none; stroke: #dddddd; stroke-width: 0.5; stroke-linecap: square"/>
     </g>
     <g id="line2d_52">
      <g>
       <use xlink:href="#me028f46721" x="216.350897" y="99.675954" style="stroke: #000000; stroke-width: 0.6"/>
      </g>
     </g>
     <g id="text_29">
      <!-- 1.0 -->
      <g transform="translate(197.900647 102.411392) scale(0.072 -0.072)">
       <use xlink:href="#DejaVuSans-31"/>
       <use xlink:href="#DejaVuSans-2e" transform="translate(63.623047 0)"/>
       <use xlink:href="#DejaVuSans-30" transform="translate(95.410156 0)"/>
      </g>
     </g>
    </g>
    <g id="ytick_10">
     <g id="line2d_53">
      <path d="M 216.350897 74.991039 
L 359.745808 74.991039 
" clip-path="url(#p5b47b3fe63)" style="fill: none; stroke: #dddddd; stroke-width: 0.5; stroke-linecap: square"/>
     </g>
     <g id="line2d_54">
      <g>
       <use xlink:href="#me028f46721" x="216.350897" y="74.991039" style="stroke: #000000; stroke-width: 0.6"/>
      </g>
     </g>
     <g id="text_30">
      <!-- 1.5 -->
      <g transform="translate(197.900647 77.726476) scale(0.072 -0.072)">
       <use xlink:href="#DejaVuSans-31"/>
       <use xlink:href="#DejaVuSans-2e" transform="translate(63.623047 0)"/>
       <use xlink:href="#DejaVuSans-35" transform="translate(95.410156 0)"/>
      </g>
     </g>
    </g>
    <g id="ytick_11">
     <g id="line2d_55">
      <path d="M 216.350897 50.306123 
L 359.745808 50.306123 
" clip-path="url(#p5b47b3fe63)" style="fill: none; stroke: #dddddd; stroke-width: 0.5; stroke-linecap: square"/>
     </g>
     <g id="line2d_56">
      <g>
       <use xlink:href="#me028f46721" x="216.350897" y="50.306123" style="stroke: #000000; stroke-width: 0.6"/>
      </g>
     </g>
     <g id="text_31">
      <!-- 2.0 -->
      <g transform="translate(197.900647 53.041561) scale(0.072 -0.072)">
       <use xlink:href="#DejaVuSans-32"/>
       <use xlink:href="#DejaVuSans-2e" transform="translate(63.623047 0)"/>
       <use xlink:href="#DejaVuSans-30" transform="translate(95.410156 0)"/>
      </g>
     </g>
    </g>
    <g id="ytick_12">
     <g id="line2d_57">
      <path d="M 216.350897 25.621208 
L 359.745808 25.621208 
" clip-path="url(#p5b47b3fe63)" style="fill: none; stroke: #dddddd; stroke-width: 0.5; stroke-linecap: square"/>
     </g>
     <g id="line2d_58">
      <g>
       <use xlink:href="#me028f46721" x="216.350897" y="25.621208" style="stroke: #000000; stroke-width: 0.6"/>
      </g>
     </g>
     <g id="text_32">
      <!-- 2.5 -->
      <g transform="translate(197.900647 28.356645) scale(0.072 -0.072)">
       <use xlink:href="#DejaVuSans-32"/>
       <use xlink:href="#DejaVuSans-2e" transform="translate(63.623047 0)"/>
       <use xlink:href="#DejaVuSans-35" transform="translate(95.410156 0)"/>
      </g>
     </g>
    </g>
    <g id="text_33">
     <!-- $g'(s)$ -->
     <g transform="translate(192.220647 93.456274) rotate(-90) scale(0.08 -0.08)">
      <defs>
       <path id="Cmsy10-30" d="M 225 347 
Q 184 359 184 409 
L 966 3316 
Q 1003 3434 1093 3506 
Q 1184 3578 1300 3578 
Q 1450 3578 1564 3479 
Q 1678 3381 1678 3231 
Q 1678 3166 1644 3084 
L 488 319 
Q 466 275 428 275 
Q 394 275 320 306 
Q 247 338 225 347 
z
" transform="scale(0.015625)"/>
      </defs>
      <use xlink:href="#DejaVuSans-Oblique-67" transform="translate(0 0.584375)"/>
      <use xlink:href="#Cmsy10-30" transform="translate(68.126458 38.865625) scale(0.7)"/>
      <use xlink:href="#DejaVuSans-28" transform="translate(90.103997 0.584375)"/>
      <use xlink:href="#DejaVuSans-Oblique-73" transform="translate(129.117669 0.584375)"/>
      <use xlink:href="#DejaVuSans-29" transform="translate(181.217279 0.584375)"/>
     </g>
    </g>
   </g>
   <g id="line2d_59">
    <path d="M 222.868848 106.115296 
L 224.199042 106.115296 
L 225.529236 106.115296 
L 226.85943 106.115296 
L 228.189624 106.115296 
L 229.519818 106.115296 
L 230.850012 106.115296 
L 232.180206 106.115296 
L 233.5104 106.115296 
L 234.840593 106.115296 
L 236.170787 106.115296 
L 237.500981 106.115296 
L 238.831175 106.115296 
L 240.161369 106.115296 
L 241.491563 106.115296 
L 242.821757 106.115296 
L 244.151951 106.115296 
L 245.482145 106.115296 
L 246.812339 106.115296 
L 248.142533 106.115296 
L 249.472727 106.115296 
L 250.802921 106.115296 
L 252.133115 106.115296 
L 253.463309 106.115296 
L 254.793503 106.115296 
L 256.123697 106.115296 
L 257.453891 106.115296 
L 258.784085 106.115296 
L 260.114279 106.115296 
L 261.444473 106.115296 
L 262.774667 106.115296 
L 264.104861 106.115296 
L 265.435055 106.115296 
L 266.765249 106.115296 
L 268.095443 106.115296 
L 269.425637 106.115296 
L 270.755831 106.115296 
L 272.086025 106.115296 
L 273.416219 106.115296 
L 274.746413 106.115296 
L 276.076607 106.115296 
L 277.406801 106.115296 
L 278.736995 106.115296 
L 280.067189 106.115296 
L 281.397383 106.115296 
L 282.727577 106.115296 
L 284.057771 106.115296 
L 285.387965 106.115296 
L 286.718159 106.115296 
L 288.048353 106.115296 
L 289.378547 106.115296 
L 290.708741 106.115296 
L 292.038934 106.115296 
L 293.369128 106.115296 
L 294.699322 106.115296 
L 296.029516 106.115296 
L 297.35971 106.115296 
L 298.689904 106.115296 
L 300.020098 106.115296 
L 301.350292 106.115296 
L 302.680486 106.115296 
L 304.01068 106.115296 
L 305.340874 106.115296 
L 306.671068 106.115296 
L 308.001262 106.115296 
L 309.331456 106.115296 
L 310.66165 106.115296 
L 311.991844 106.115296 
L 313.322038 106.115296 
L 314.652232 106.115296 
L 315.982426 106.115296 
L 317.31262 106.115296 
L 318.642814 106.115296 
L 319.973008 106.115296 
L 321.303202 106.115296 
L 322.633396 106.115296 
L 323.96359 106.115296 
L 325.293784 106.115296 
L 326.623978 106.115296 
L 327.954172 106.115296 
L 329.284366 106.115296 
L 330.61456 106.115296 
L 331.944754 106.115296 
L 333.274948 106.115296 
L 334.605142 106.115296 
L 335.935336 106.115296 
L 337.26553 106.115296 
L 338.595724 106.115296 
L 339.925918 106.115296 
L 341.256112 106.115296 
L 342.586306 106.115296 
L 343.9165 106.115296 
L 345.246694 106.115296 
L 346.576888 106.115296 
L 347.907081 106.115296 
L 349.237275 106.115296 
L 350.567469 106.115296 
L 351.897663 106.115296 
L 353.227857 106.115296 
" clip-path="url(#p5b47b3fe63)" style="fill: none; stroke: #1f77b4; stroke-linecap: square"/>
   </g>
   <g id="line2d_60">
    <path d="M 222.868848 20.186763 
L 224.199042 42.882876 
L 225.529236 54.257889 
L 226.85943 61.581493 
L 228.189624 66.870143 
L 229.519818 70.953009 
L 230.850012 74.246351 
L 232.180206 76.986696 
L 233.5104 79.320398 
L 234.840593 81.343849 
L 236.170787 83.123651 
L 237.500981 84.707595 
L 238.831175 86.131053 
L 240.161369 87.420876 
L 241.491563 88.597893 
L 242.821757 89.678561 
L 244.151951 90.676087 
L 245.482145 91.601224 
L 246.812339 92.46283 
L 248.142533 93.268283 
L 249.472727 94.023786 
L 250.802921 94.734605 
L 252.133115 95.40524 
L 253.463309 96.039567 
L 254.793503 96.640947 
L 256.123697 97.212309 
L 257.453891 97.756224 
L 258.784085 98.274954 
L 260.114279 98.770506 
L 261.444473 99.244662 
L 262.774667 99.699014 
L 264.104861 100.13499 
L 265.435055 100.553873 
L 266.765249 100.956821 
L 268.095443 101.344883 
L 269.425637 101.719012 
L 270.755831 102.080075 
L 272.086025 102.428862 
L 273.416219 102.766099 
L 274.746413 103.092449 
L 276.076607 103.408524 
L 277.406801 103.714885 
L 278.736995 104.012052 
L 280.067189 104.300506 
L 281.397383 104.580692 
L 282.727577 104.853021 
L 284.057771 105.11788 
L 285.387965 105.375624 
L 286.718159 105.626587 
L 288.048353 105.871082 
L 289.378547 106.109398 
L 290.708741 106.341809 
L 292.038934 106.568571 
L 293.369128 106.789923 
L 294.699322 107.006092 
L 296.029516 107.217289 
L 297.35971 107.423715 
L 298.689904 107.625559 
L 300.020098 107.822998 
L 301.350292 108.016201 
L 302.680486 108.205327 
L 304.01068 108.390527 
L 305.340874 108.571945 
L 306.671068 108.749714 
L 308.001262 108.923965 
L 309.331456 109.094818 
L 310.66165 109.262392 
L 311.991844 109.426795 
L 313.322038 109.588133 
L 314.652232 109.746507 
L 315.982426 109.902013 
L 317.31262 110.054741 
L 318.642814 110.204778 
L 319.973008 110.352209 
L 321.303202 110.497112 
L 322.633396 110.639564 
L 323.96359 110.779637 
L 325.293784 110.917402 
L 326.623978 111.052926 
L 327.954172 111.186272 
L 329.284366 111.317503 
L 330.61456 111.446676 
L 331.944754 111.57385 
L 333.274948 111.699077 
L 334.605142 111.822412 
L 335.935336 111.943904 
L 337.26553 112.063602 
L 338.595724 112.181553 
L 339.925918 112.2978 
L 341.256112 112.412388 
L 342.586306 112.525359 
L 343.9165 112.636752 
L 345.246694 112.746607 
L 346.576888 112.854961 
L 347.907081 112.961849 
L 349.237275 113.067308 
L 350.567469 113.17137 
L 351.897663 113.274069 
L 353.227857 113.375436 
" clip-path="url(#p5b47b3fe63)" style="fill: none; stroke: #ff7f0e; stroke-linecap: square"/>
   </g>
   <g id="line2d_61">
    <path d="M 222.868848 45.718773 
L 224.199042 54.934924 
L 225.529236 60.35127 
L 226.85943 64.219329 
L 228.189624 67.240939 
L 229.519818 69.727858 
L 230.850012 71.846114 
L 232.180206 73.694713 
L 233.5104 75.337476 
L 234.840593 76.817967 
L 236.170787 78.167255 
L 237.500981 79.40828 
L 238.831175 80.558471 
L 240.161369 81.631377 
L 241.491563 82.637745 
L 242.821757 83.586245 
L 244.151951 84.483971 
L 245.482145 85.336807 
L 246.812339 86.149686 
L 248.142533 86.926783 
L 249.472727 87.671671 
L 250.802921 88.387424 
L 252.133115 89.076711 
L 253.463309 89.741866 
L 254.793503 90.38494 
L 256.123697 91.007746 
L 257.453891 91.611895 
L 258.784085 92.198828 
L 260.114279 92.769837 
L 261.444473 93.326086 
L 262.774667 93.86863 
L 264.104861 94.398427 
L 265.435055 94.916348 
L 266.765249 95.423194 
L 268.095443 95.919697 
L 269.425637 96.406535 
L 270.755831 96.884331 
L 272.086025 97.353664 
L 273.416219 97.815073 
L 274.746413 98.269061 
L 276.076607 98.716096 
L 277.406801 99.156621 
L 278.736995 99.591049 
L 280.067189 100.019773 
L 281.397383 100.443163 
L 282.727577 100.861572 
L 284.057771 101.275334 
L 285.387965 101.684771 
L 286.718159 102.090191 
L 288.048353 102.491888 
L 289.378547 102.890149 
L 290.708741 103.285251 
L 292.038934 103.677461 
L 293.369128 104.067043 
L 294.699322 104.454255 
L 296.029516 104.839349 
L 297.35971 105.222575 
L 298.689904 105.604182 
L 300.020098 105.984416 
L 301.350292 106.363526 
L 302.680486 106.74176 
L 304.01068 107.11937 
L 305.340874 107.496612 
L 306.671068 107.873745 
L 308.001262 108.251038 
L 309.331456 108.628766 
L 310.66165 109.007214 
L 311.991844 109.386681 
L 313.322038 109.767477 
L 314.652232 110.149931 
L 315.982426 110.53439 
L 317.31262 110.921224 
L 318.642814 111.31083 
L 319.973008 111.703633 
L 321.303202 112.100097 
L 322.633396 112.500725 
L 323.96359 112.906069 
L 325.293784 113.316741 
L 326.623978 113.733417 
L 327.954172 114.156858 
L 329.284366 114.58792 
L 330.61456 115.027576 
L 331.944754 115.476944 
L 333.274948 115.937314 
L 334.605142 116.410199 
L 335.935336 116.897386 
L 337.26553 117.401015 
L 338.595724 117.923686 
L 339.925918 118.468609 
L 341.256112 119.039821 
L 342.586306 119.642515 
L 343.9165 120.283549 
L 345.246694 120.972281 
L 346.576888 121.722009 
L 347.907081 122.552669 
L 349.237275 123.496382 
L 350.567469 124.610618 
L 351.897663 126.016931 
L 353.227857 128.070967 
" clip-path="url(#p5b47b3fe63)" style="fill: none; stroke: #2ca02c; stroke-linecap: square"/>
   </g>
   <g id="line2d_62">
    <path d="M 222.868848 70.764152 
L 224.199042 71.235702 
L 225.529236 71.709203 
L 226.85943 72.184685 
L 228.189624 72.662177 
L 229.519818 73.141708 
L 230.850012 73.62331 
L 232.180206 74.107012 
L 233.5104 74.592848 
L 234.840593 75.08085 
L 236.170787 75.571052 
L 237.500981 76.06349 
L 238.831175 76.558198 
L 240.161369 77.055214 
L 241.491563 77.554576 
L 242.821757 78.056322 
L 244.151951 78.560492 
L 245.482145 79.067127 
L 246.812339 79.57627 
L 248.142533 80.087965 
L 249.472727 80.602256 
L 250.802921 81.119189 
L 252.133115 81.638813 
L 253.463309 82.161176 
L 254.793503 82.68633 
L 256.123697 83.214326 
L 257.453891 83.745219 
L 258.784085 84.279065 
L 260.114279 84.815921 
L 261.444473 85.355847 
L 262.774667 85.898906 
L 264.104861 86.44516 
L 265.435055 86.994677 
L 266.765249 87.547525 
L 268.095443 88.103774 
L 269.425637 88.6635 
L 270.755831 89.226777 
L 272.086025 89.793687 
L 273.416219 90.36431 
L 274.746413 90.938734 
L 276.076607 91.517047 
L 277.406801 92.099343 
L 278.736995 92.685718 
L 280.067189 93.276273 
L 281.397383 93.871113 
L 282.727577 94.470349 
L 284.057771 95.074094 
L 285.387965 95.68247 
L 286.718159 96.295601 
L 288.048353 96.91362 
L 289.378547 97.536663 
L 290.708741 98.164876 
L 292.038934 98.798411 
L 293.369128 99.437428 
L 294.699322 100.082094 
L 296.029516 100.732587 
L 297.35971 101.389094 
L 298.689904 102.051812 
L 300.020098 102.720951 
L 301.350292 103.39673 
L 302.680486 104.079385 
L 304.01068 104.769165 
L 305.340874 105.466335 
L 306.671068 106.171176 
L 308.001262 106.88399 
L 309.331456 107.605099 
L 310.66165 108.334848 
L 311.991844 109.073607 
L 313.322038 109.821774 
L 314.652232 110.579778 
L 315.982426 111.348084 
L 317.31262 112.127194 
L 318.642814 112.917655 
L 319.973008 113.720061 
L 321.303202 114.535064 
L 322.633396 115.363378 
L 323.96359 116.205788 
L 325.293784 117.063164 
L 326.623978 117.936472 
L 327.954172 118.826787 
L 329.284366 119.735319 
L 330.61456 120.663429 
L 331.944754 121.612665 
L 333.274948 122.584796 
L 334.605142 123.581859 
L 335.935336 124.606225 
L 337.26553 125.660679 
L 338.595724 126.748531 
L 339.925918 127.873764 
L 341.256112 129.041256 
L 342.586306 130.257086 
L 343.9165 131.529002 
L 345.246694 132.867159 
L 346.576888 134.285333 
L 347.907081 135.803084 
L 349.237275 137.449934 
L 350.567469 139.274585 
L 351.897663 141.369504 
L 353.227857 143.964201 
" clip-path="url(#p5b47b3fe63)" style="fill: none; stroke: #d62728; stroke-linecap: square"/>
   </g>
   <g id="line2d_63">
    <path d="M 222.868848 81.297234 
L 224.199042 81.297234 
L 225.529236 81.297234 
L 226.85943 81.297234 
L 228.189624 81.297234 
L 229.519818 81.297234 
L 230.850012 81.297234 
L 232.180206 81.297234 
L 233.5104 81.297234 
L 234.840593 81.297234 
L 236.170787 81.297234 
L 237.500981 81.297234 
L 238.831175 81.297234 
L 240.161369 81.297234 
L 241.491563 81.297234 
L 242.821757 81.297234 
L 244.151951 81.297234 
L 245.482145 81.297234 
L 246.812339 81.297234 
L 248.142533 81.297234 
L 249.472727 81.297234 
L 250.802921 81.297234 
L 252.133115 81.297234 
L 253.463309 81.297234 
L 254.793503 81.297234 
L 256.123697 81.297234 
L 257.453891 81.297234 
L 258.784085 81.297234 
L 260.114279 81.297234 
L 261.444473 81.297234 
L 262.774667 81.297234 
L 264.104861 81.297234 
L 265.435055 81.297234 
L 266.765249 81.297234 
L 268.095443 81.297234 
L 269.425637 81.297234 
L 270.755831 81.297234 
L 272.086025 81.297234 
L 273.416219 81.297234 
L 274.746413 81.297234 
L 276.076607 81.297234 
L 277.406801 81.297234 
L 278.736995 81.297234 
L 280.067189 81.297234 
L 281.397383 81.297234 
L 282.727577 81.297234 
L 284.057771 81.297234 
L 285.387965 81.297234 
L 286.718159 81.297234 
L 288.048353 81.297234 
L 289.378547 81.297234 
L 290.708741 81.297234 
L 292.038934 81.297234 
L 293.369128 81.297234 
L 294.699322 81.297234 
L 296.029516 81.297234 
L 297.35971 81.297234 
L 298.689904 81.297234 
L 300.020098 81.297234 
L 301.350292 81.297234 
L 302.680486 81.297234 
L 304.01068 81.297234 
L 305.340874 81.297234 
L 306.671068 81.297234 
L 308.001262 81.297234 
L 309.331456 81.297234 
L 310.66165 81.297234 
L 311.991844 81.297234 
L 313.322038 81.297234 
L 314.652232 81.297234 
L 315.982426 81.297234 
L 317.31262 81.297234 
L 318.642814 149.045785 
L 319.973008 149.045785 
L 321.303202 149.045785 
L 322.633396 149.045785 
L 323.96359 149.045785 
L 325.293784 149.045785 
L 326.623978 149.045785 
L 327.954172 149.045785 
L 329.284366 149.045785 
L 330.61456 149.045785 
L 331.944754 149.045785 
L 333.274948 149.045785 
L 334.605142 149.045785 
L 335.935336 149.045785 
L 337.26553 149.045785 
L 338.595724 149.045785 
L 339.925918 149.045785 
L 341.256112 149.045785 
L 342.586306 149.045785 
L 343.9165 149.045785 
L 345.246694 149.045785 
L 346.576888 149.045785 
L 347.907081 149.045785 
L 349.237275 149.045785 
L 350.567469 149.045785 
L 351.897663 149.045785 
L 353.227857 149.045785 
" clip-path="url(#p5b47b3fe63)" style="fill: none; stroke: #9467bd; stroke-linecap: square"/>
   </g>
   <g id="line2d_64">
    <path d="M 216.350897 99.675954 
L 359.745808 99.675954 
" clip-path="url(#p5b47b3fe63)" style="fill: none; stroke: #000000; stroke-width: 0.25; stroke-linecap: square"/>
   </g>
   <g id="patch_7">
    <path d="M 216.350897 155.488736 
L 216.350897 13.743812 
" style="fill: none; stroke: #000000; stroke-width: 0.6; stroke-linejoin: miter; stroke-linecap: square"/>
   </g>
   <g id="patch_8">
    <path d="M 216.350897 155.488736 
L 359.745808 155.488736 
" style="fill: none; stroke: #000000; stroke-width: 0.6; stroke-linejoin: miter; stroke-linecap: square"/>
   </g>
   <g id="text_34">
    <!-- * -->
    <g style="fill: #1f77b4" transform="translate(221.538654 13.27875) scale(0.08 -0.08)">
     <defs>
      <path id="DejaVuSans-2a" d="M 3009 3897 
L 1888 3291 
L 3009 2681 
L 2828 2375 
L 1778 3009 
L 1778 1831 
L 1422 1831 
L 1422 3009 
L 372 2375 
L 191 2681 
L 1313 3291 
L 191 3897 
L 372 4206 
L 1422 3572 
L 1422 4750 
L 1778 4750 
L 1778 3572 
L 2828 4206 
L 3009 3897 
z
" transform="scale(0.015625)"/>
     </defs>
     <use xlink:href="#DejaVuSans-2a"/>
    </g>
   </g>
   <g id="legend_2">
    <g id="patch_9">
     <path d="M 323.106945 58.931887 
L 355.859408 58.931887 
Q 356.969808 58.931887 356.969808 57.821487 
L 356.969808 17.630212 
Q 356.969808 16.519812 355.859408 16.519812 
L 323.106945 16.519812 
Q 321.996545 16.519812 321.996545 17.630212 
L 321.996545 57.821487 
Q 321.996545 58.931887 323.106945 58.931887 
z
" style="fill: #ffffff"/>
    </g>
    <g id="line2d_65">
     <path d="M 324.217345 21.016065 
L 329.769345 21.016065 
L 335.321345 21.016065 
" style="fill: none; stroke: #1f77b4; stroke-linecap: square"/>
    </g>
    <g id="text_35">
     <!-- ccoc -->
     <g transform="translate(339.762945 22.959265) scale(0.05552 -0.05552)">
      <use xlink:href="#DejaVuSans-63"/>
      <use xlink:href="#DejaVuSans-63" transform="translate(54.980469 0)"/>
      <use xlink:href="#DejaVuSans-6f" transform="translate(109.960938 0)"/>
      <use xlink:href="#DejaVuSans-63" transform="translate(171.142578 0)"/>
     </g>
    </g>
    <g id="line2d_66">
     <path d="M 324.217345 29.16536 
L 329.769345 29.16536 
L 335.321345 29.16536 
" style="fill: none; stroke: #ff7f0e; stroke-linecap: square"/>
    </g>
    <g id="text_36">
     <!-- ph -->
     <g transform="translate(339.762945 31.10856) scale(0.05552 -0.05552)">
      <use xlink:href="#DejaVuSans-70"/>
      <use xlink:href="#DejaVuSans-68" transform="translate(63.476562 0)"/>
     </g>
    </g>
    <g id="line2d_67">
     <path d="M 324.217345 37.314655 
L 329.769345 37.314655 
L 335.321345 37.314655 
" style="fill: none; stroke: #2ca02c; stroke-linecap: square"/>
    </g>
    <g id="text_37">
     <!-- wang -->
     <g transform="translate(339.762945 39.257855) scale(0.05552 -0.05552)">
      <use xlink:href="#DejaVuSans-77"/>
      <use xlink:href="#DejaVuSans-61" transform="translate(81.787109 0)"/>
      <use xlink:href="#DejaVuSans-6e" transform="translate(143.066406 0)"/>
      <use xlink:href="#DejaVuSans-67" transform="translate(206.445312 0)"/>
     </g>
    </g>
    <g id="line2d_68">
     <path d="M 324.217345 45.46395 
L 329.769345 45.46395 
L 335.321345 45.46395 
" style="fill: none; stroke: #d62728; stroke-linecap: square"/>
    </g>
    <g id="text_38">
     <!-- dual -->
     <g transform="translate(339.762945 47.40715) scale(0.05552 -0.05552)">
      <use xlink:href="#DejaVuSans-64"/>
      <use xlink:href="#DejaVuSans-75" transform="translate(63.476562 0)"/>
      <use xlink:href="#DejaVuSans-61" transform="translate(126.855469 0)"/>
      <use xlink:href="#DejaVuSans-6c" transform="translate(188.134766 0)"/>
     </g>
    </g>
    <g id="line2d_69">
     <path d="M 324.217345 53.613245 
L 329.769345 53.613245 
L 335.321345 53.613245 
" style="fill: none; stroke: #9467bd; stroke-linecap: square"/>
    </g>
    <g id="text_39">
     <!-- tvar -->
     <g transform="translate(339.762945 55.556445) scale(0.05552 -0.05552)">
      <use xlink:href="#DejaVuSans-74"/>
      <use xlink:href="#DejaVuSans-76" transform="translate(39.208984 0)"/>
      <use xlink:href="#DejaVuSans-61" transform="translate(98.388672 0)"/>
      <use xlink:href="#DejaVuSans-72" transform="translate(159.667969 0)"/>
     </g>
    </g>
   </g>
  </g>
 </g>
 <defs>
  <clipPath id="pc600320428">
   <rect x="37.41025" y="13.743812" width="141.744924" height="141.744924"/>
  </clipPath>
  <clipPath id="p5b47b3fe63">
   <rect x="216.350897" y="13.743812" width="143.394911" height="141.744924"/>
  </clipPath>
 </defs>
</svg>
